<svg xmlns="http://www.w3.org/2000/svg" xmlns:xlink="http://www.w3.org/1999/xlink" width="56.25" viewBox="0 0 56.25 56.25" height="56.25" version="1.0"><defs><g id="b"><path d="M 0.90625 -1.699219 C 0.628906 -0.3125 0.609375 -0.3125 0.609375 -0.277344 C 0.609375 -0.109375 0.738281 0 0.90625 0 L 6.929688 0 C 7.132812 -0.0195312 7.316406 -0.183594 7.375 -0.386719 L 7.78125 -2.273438 C 7.78125 -2.4375 7.667969 -2.570312 7.484375 -2.570312 L 4.214844 -2.570312 L 10.386719 -13.636719 L 10.71875 -15.226562 C 10.71875 -15.394531 10.609375 -15.523438 10.421875 -15.523438 L 4.398438 -15.523438 C 4.195312 -15.523438 3.992188 -15.355469 3.953125 -15.152344 L 3.605469 -13.433594 C 3.605469 -13.269531 3.714844 -13.140625 3.898438 -13.140625 L 7.171875 -13.140625 Z M 0.90625 -1.699219"/></g><g id="c"><path d="M 5.136719 -15.523438 C 4.804688 -15.523438 3.84375 -15.523438 3.566406 -14.230469 C 0.628906 -0.332031 0.609375 -0.296875 0.609375 -0.277344 C 0.609375 -0.109375 0.757812 0 0.925781 0 L 3.125 0 C 3.328125 0 3.511719 -0.167969 3.566406 -0.371094 L 6.285156 -13.140625 L 7.171875 -13.140625 C 4.453125 -0.3125 4.433594 -0.296875 4.433594 -0.257812 C 4.433594 -0.09375 4.566406 0.0195312 4.730469 0.0195312 L 6.929688 0.0195312 C 7.132812 0.0195312 7.335938 -0.148438 7.390625 -0.351562 L 10.109375 -13.140625 L 11.015625 -13.140625 C 8.296875 -0.332031 8.277344 -0.296875 8.277344 -0.277344 C 8.277344 -0.109375 8.425781 0 8.59375 0 L 10.773438 0 C 10.976562 0 11.164062 -0.167969 11.21875 -0.371094 C 14.175781 -14.394531 14.191406 -14.527344 14.191406 -14.65625 C 14.191406 -15.523438 13.417969 -15.523438 13.121094 -15.523438 L 10.421875 -15.523438 C 9.128906 -15.523438 8.925781 -14.597656 8.871094 -14.265625 L 8.777344 -14.265625 C 8.796875 -14.394531 8.816406 -14.542969 8.816406 -14.691406 C 8.816406 -15.078125 8.648438 -15.523438 7.742188 -15.523438 Z M 5.136719 -15.523438"/></g><g id="d"><path d="M 5.117188 -15.523438 C 4.785156 -15.523438 3.84375 -15.503906 3.566406 -14.230469 C 0.628906 -0.332031 0.609375 -0.296875 0.609375 -0.277344 C 0.609375 -0.109375 0.757812 0 0.925781 0 L 3.125 0 C 3.328125 0 3.511719 -0.167969 3.566406 -0.371094 L 4.636719 -5.46875 L 5.527344 -5.46875 C 4.453125 -0.332031 4.433594 -0.296875 4.433594 -0.277344 C 4.433594 -0.109375 4.582031 0 4.75 0 L 6.949219 0 C 7.152344 0 7.335938 -0.167969 7.390625 -0.371094 C 10.40625 -14.394531 10.421875 -14.527344 10.421875 -14.65625 C 10.421875 -15.503906 9.664062 -15.523438 9.371094 -15.523438 Z M 6.285156 -13.140625 L 7.171875 -13.140625 L 6.042969 -7.835938 L 5.15625 -7.835938 Z M 6.285156 -13.140625"/></g><g id="e"><path d="M 4.214844 -15.523438 C 4.011719 -15.523438 3.808594 -15.355469 3.769531 -15.152344 C 0.628906 -0.332031 0.609375 -0.296875 0.609375 -0.277344 C 0.609375 -0.109375 0.757812 0 0.925781 0 L 2.882812 0 C 3.085938 0 3.269531 -0.167969 3.328125 -0.371094 L 4.824219 -7.390625 C 5.636719 -0.332031 5.617188 -0.296875 5.617188 -0.277344 C 5.617188 -0.109375 5.765625 0 5.933594 0 L 7.855469 0 C 8.058594 0 8.242188 -0.167969 8.296875 -0.371094 L 11.4375 -15.226562 C 11.4375 -15.394531 11.328125 -15.523438 11.144531 -15.523438 L 9.222656 -15.523438 C 9.019531 -15.523438 8.816406 -15.355469 8.777344 -15.152344 L 7.171875 -7.578125 L 6.46875 -15.226562 C 6.46875 -15.394531 6.355469 -15.523438 6.171875 -15.523438 Z M 4.214844 -15.523438"/></g><clipPath id="a"><path d="M 0 0 L 55.511719 0 L 55.511719 55.511719 L 0 55.511719 Z M 0 0"/></clipPath></defs><g clip-path="url(#a)" fill="#FFF"><path d="M 0 0 L 56.25 0 L 56.25 182.8125 L 0 182.8125 Z M 0 0"/><path d="M 0 0 L 55.511719 0 L 55.511719 55.511719 L 0 55.511719 Z M 0 0"/><path d="M 0 0 L 55.511719 0 L 55.511719 55.511719 L 0 55.511719 Z M 0 0"/></g><path fill="#F9F940" d="M 28.070312 8.128906 C 17.238281 8.128906 8.457031 16.910156 8.457031 27.742188 C 8.457031 38.574219 17.238281 47.355469 28.070312 47.355469 C 38.902344 47.355469 47.683594 38.574219 47.683594 27.742188 C 47.683594 16.910156 38.902344 8.128906 28.070312 8.128906 Z M 28.070312 8.128906"/><g fill="#9D3BE1"><use x="8.719" y="35.631" xmlns:xlink="http://www.w3.org/1999/xlink" xlink:href="#b" xlink:type="simple" xlink:actuate="onLoad" xlink:show="embed"/></g><g fill="#9D3BE1"><use x="17.7" y="35.631" xmlns:xlink="http://www.w3.org/1999/xlink" xlink:href="#c" xlink:type="simple" xlink:actuate="onLoad" xlink:show="embed"/></g><g fill="#9D3BE1"><use x="30.321" y="35.631" xmlns:xlink="http://www.w3.org/1999/xlink" xlink:href="#d" xlink:type="simple" xlink:actuate="onLoad" xlink:show="embed"/></g><g fill="#9D3BE1"><use x="39.154" y="35.631" xmlns:xlink="http://www.w3.org/1999/xlink" xlink:href="#e" xlink:type="simple" xlink:actuate="onLoad" xlink:show="embed"/></g><path transform="matrix(.11897 0 0 .11897 6.915 18.285)" fill="none" d="M 17.984135 126.709119 C 15.62004 138.332588 15.488701 138.332588 15.488701 138.69377 C 15.488701 140.039991 16.572245 140.992196 17.984135 140.992196 L 68.615178 140.992196 C 70.322581 140.860857 71.86581 139.448967 72.325495 137.741565 L 75.740299 121.882425 C 75.740299 120.470534 74.820929 119.419825 73.2777 119.419825 L 45.795091 119.419825 L 97.673851 26.366403 L 100.464797 13.002697 C 100.464797 11.590807 99.512592 10.507263 97.969363 10.507263 L 47.33832 10.507263 C 45.630918 10.507263 43.923515 11.919153 43.628003 13.626556 L 40.672884 28.073805 C 40.672884 29.452861 41.55942 30.569239 43.135483 30.569239 L 70.618093 30.569239 Z M 129.03095 10.507263 C 126.240004 10.507263 118.162678 10.507263 115.864252 21.375535 C 91.10692 138.20125 90.975581 138.496762 90.975581 138.69377 C 90.975581 140.039991 92.223298 140.992196 93.635188 140.992196 L 112.088266 140.992196 C 113.795669 140.992196 115.338897 139.61314 115.864252 137.905738 L 138.68434 30.569239 L 146.104972 30.569239 C 123.284885 138.332588 123.120712 138.496762 123.120712 138.825108 C 123.120712 140.236999 124.23709 141.156369 125.616146 141.156369 L 144.102058 141.156369 C 145.809461 141.156369 147.516863 139.744479 147.976548 138.037077 L 170.82947 30.569239 L 178.414276 30.569239 C 155.594189 138.20125 155.430015 138.496762 155.430015 138.69377 C 155.430015 140.039991 156.677732 140.992196 158.089623 140.992196 L 176.411362 140.992196 C 178.118764 140.992196 179.661993 139.61314 180.121679 137.905738 C 205.01035 19.996479 205.174523 18.912936 205.174523 17.829392 C 205.174523 10.507263 198.640426 10.507263 196.144992 10.507263 L 173.456243 10.507263 C 162.555136 10.507263 160.880569 18.289077 160.420884 21.080023 L 159.665686 21.080023 C 159.797025 19.996479 159.961198 18.715928 159.961198 17.501045 C 159.961198 14.250414 158.549308 10.507263 150.931667 10.507263 Z M 234.988393 10.507263 C 232.164612 10.507263 224.25146 10.638602 221.953034 21.375535 C 197.195701 138.20125 197.064362 138.496762 197.064362 138.69377 C 197.064362 140.039991 198.312079 140.992196 199.72397 140.992196 L 218.177048 140.992196 C 219.88445 140.992196 221.460514 139.61314 221.953034 137.905738 L 230.916895 95.023674 L 238.403197 95.023674 C 229.373666 138.20125 229.209493 138.496762 229.209493 138.69377 C 229.209493 140.039991 230.45721 140.992196 231.8691 140.992196 L 250.355013 140.992196 C 252.062415 140.992196 253.605644 139.61314 254.06533 137.905738 C 279.380851 19.996479 279.545024 18.912936 279.545024 17.829392 C 279.545024 10.638602 273.175101 10.507263 270.712501 10.507263 Z M 244.773121 30.569239 L 252.193754 30.569239 L 242.704538 75.125871 L 235.283905 75.125871 Z M 301.609915 10.507263 C 299.902513 10.507263 298.19511 11.919153 297.899599 13.626556 C 271.467698 138.20125 271.303525 138.496762 271.303525 138.69377 C 271.303525 140.039991 272.551242 140.992196 273.963133 140.992196 L 290.413296 140.992196 C 292.120699 140.992196 293.696762 139.61314 294.123613 137.905738 L 306.732122 78.869022 C 313.561731 138.20125 313.397557 138.496762 313.397557 138.69377 C 313.397557 140.039991 314.645274 140.992196 316.057165 140.992196 L 332.211817 140.992196 C 333.919219 140.992196 335.462448 139.61314 335.922133 137.905738 L 362.321198 13.002697 C 362.321198 11.590807 361.401828 10.507263 359.858599 10.507263 L 343.703947 10.507263 C 341.996545 10.507263 340.289143 11.919153 339.993631 13.626556 L 326.432917 77.325793 L 320.555513 13.002697 C 320.555513 11.590807 319.636142 10.507263 318.060079 10.507263 Z M 301.609915 10.507263" stroke="#79FFA0" stroke-width="2.913"/></svg>